<svg xmlns="http://www.w3.org/2000/svg"
     width="499.000000pt" height="362.000000pt" viewBox="0 0 499.000000 362.000000"
     preserveAspectRatio="xMidYMid meet">
    <g transform="translate(0.000000,362.000000) scale(0.100000,-0.100000)"
       fill="#FFE77C" stroke="none">
        <path d="M1317 2687 c-743 -274 -1163 -434 -1154 -439 8 -4 437 -163 953 -354
517 -190 1035 -381 1153 -425 118 -43 222 -79 232 -79 10 0 187 62 394 139
l377 138 25 74 c30 90 26 116 -30 190 -107 142 -350 294 -549 344 -61 16 -71
16 -105 2 -106 -42 -236 -26 -300 38 -103 103 62 222 248 179 35 -8 96 -21
136 -28 360 -70 711 -306 782 -526 10 -33 15 -36 73 -47 37 -7 78 -24 103 -41
l40 -28 572 211 c315 116 575 214 578 217 3 3 -31 19 -77 36 -46 16 -572 210
-1170 431 -598 221 -1093 401 -1100 400 -7 0 -539 -194 -1181 -432z"/>
        <path d="M920 1297 l0 -515 68 -40 c395 -233 829 -379 1257 -423 304 -30 704
17 1025 123 221 72 480 188 663 296 l77 46 0 499 c0 395 -3 498 -12 495 -7 -3
-65 -24 -129 -47 l-117 -43 -5 -43 c-4 -24 -14 -58 -22 -76 -16 -33 -14 -42
59 -337 42 -167 76 -322 76 -343 0 -82 -114 -159 -235 -159 -64 0 -54 -21 -89
194 -14 82 -27 150 -29 153 -2 2 -12 -56 -21 -129 -21 -164 -24 -180 -36 -173
-33 20 -39 67 -54 381 l-16 318 -28 29 -28 28 -411 -151 -411 -152 -774 285
c-425 157 -781 288 -790 292 -17 7 -18 -21 -18 -508z"/>
    </g>
</svg>